<mxfile host="app.diagrams.net" modified="2024-07-03T14:57:53.254Z" agent="Mozilla/5.0 (Windows NT 10.0; Win64; x64) AppleWebKit/537.36 (KHTML, like Gecko) Chrome/126.0.0.0 Safari/537.36" etag="s3JPOzEkiH53G1eDnWAV" version="24.6.4" type="google">
  <diagram name="PÃ¡gina-1" id="_ZPGWdHdFan3JjxQCqNc">
    <mxGraphModel grid="1" page="1" gridSize="10" guides="1" tooltips="1" connect="1" arrows="1" fold="1" pageScale="1" pageWidth="827" pageHeight="1169" math="0" shadow="0">
      <root>
        <mxCell id="0" />
        <mxCell id="1" parent="0" />
        <mxCell id="EH_N8-7epsGuoJA1Lm6o-1" value="Produto" style="swimlane;fontStyle=1;align=center;verticalAlign=top;childLayout=stackLayout;horizontal=1;startSize=26;horizontalStack=0;resizeParent=1;resizeParentMax=0;resizeLast=0;collapsible=1;marginBottom=0;whiteSpace=wrap;html=1;" vertex="1" parent="1">
          <mxGeometry x="40" y="40" width="290" height="340" as="geometry" />
        </mxCell>
        <mxCell id="EH_N8-7epsGuoJA1Lm6o-2" value="&lt;div&gt;- id: int&lt;/div&gt;+ nome: str&lt;div&gt;+ descricao: str&lt;br&gt;&lt;/div&gt;&lt;div&gt;+ preco: float&lt;br&gt;&lt;/div&gt;&lt;div&gt;+ categoria: str&lt;br&gt;&lt;/div&gt;&lt;div&gt;+ marca: str&lt;/div&gt;&lt;div&gt;+ codigo: int&lt;br&gt;&lt;/div&gt;&lt;div&gt;+ origem: str&lt;br&gt;&lt;/div&gt;&lt;div&gt;+ quantidadeDisponivel: str&lt;br&gt;&lt;/div&gt;&lt;div&gt;&lt;br&gt;&lt;/div&gt;&lt;div&gt;+ pesoLiquido: float&amp;nbsp;&lt;br&gt;&lt;/div&gt;&lt;div&gt;+ pesoBruto: float&lt;br&gt;&lt;/div&gt;&lt;div&gt;+codigoBarras:&amp;nbsp;&lt;/div&gt;" style="text;strokeColor=none;fillColor=none;align=left;verticalAlign=top;spacingLeft=4;spacingRight=4;overflow=hidden;rotatable=0;points=[[0,0.5],[1,0.5]];portConstraint=eastwest;whiteSpace=wrap;html=1;" vertex="1" parent="EH_N8-7epsGuoJA1Lm6o-1">
          <mxGeometry y="26" width="290" height="264" as="geometry" />
        </mxCell>
        <mxCell id="EH_N8-7epsGuoJA1Lm6o-3" value="" style="line;strokeWidth=1;fillColor=none;align=left;verticalAlign=middle;spacingTop=-1;spacingLeft=3;spacingRight=3;rotatable=0;labelPosition=right;points=[];portConstraint=eastwest;strokeColor=inherit;" vertex="1" parent="EH_N8-7epsGuoJA1Lm6o-1">
          <mxGeometry y="290" width="290" height="8" as="geometry" />
        </mxCell>
        <mxCell id="EH_N8-7epsGuoJA1Lm6o-4" value="+ method(type): type" style="text;strokeColor=none;fillColor=none;align=left;verticalAlign=top;spacingLeft=4;spacingRight=4;overflow=hidden;rotatable=0;points=[[0,0.5],[1,0.5]];portConstraint=eastwest;whiteSpace=wrap;html=1;" vertex="1" parent="EH_N8-7epsGuoJA1Lm6o-1">
          <mxGeometry y="298" width="290" height="42" as="geometry" />
        </mxCell>
      </root>
    </mxGraphModel>
  </diagram>
</mxfile>
